# xmcd
#
# Track frame offsets: 
#        150
#        20543
#        43259
#        54257
#        68114
#        88272
#        103739
#
# Disc length: 1618 seconds
#
# Revision: 0
# Processed by: cddbd v1.5.2PL0 Copyright (c) Steve Scherf et al.
# Submitted via: ExactAudioCopy v1.3
#
DISCID=5b065007
DTITLE=Quiet The Dog - Blues On Tuesday
DYEAR=2019
DGENRE=Electric Blues
TTITLE0=Buckshot Blues
TTITLE1=Rusty Guitar Strings
TTITLE2=1953
TTITLE3=Weeds On My Stone
TTITLE4=Rainy Nights
TTITLE5=Straight For The Door
TTITLE6=The Stone Was Rolled Away
EXTD=
EXTT0=
EXTT1=
EXTT2=
EXTT3=
EXTT4=
EXTT5=
EXTT6=
PLAYORDER=
